<svg xmlns="http://www.w3.org/2000/svg" width="28" height="28" viewBox="0 0 28 28" fill="none">
  <g clip-path="url(#clip0_131_150)">
    <path d="M13.7669 0C6.20066 0 0.0668945 6.13376 0.0668945 13.7C0.0668945 20.1248 4.49035 25.516 10.4575 26.9967V17.8867H7.63258V13.7H10.4575V11.896C10.4575 7.23305 12.5679 5.07174 17.1459 5.07174C18.0139 5.07174 19.5116 5.24217 20.1242 5.41205V9.20695C19.8009 9.17297 19.2392 9.15598 18.5416 9.15598C16.2954 9.15598 15.4273 10.007 15.4273 12.2193V13.7H19.9023L19.1335 17.8867H15.4273V27.2997C22.211 26.4805 27.4674 20.7045 27.4674 13.7C27.4669 6.13376 21.3331 0 13.7669 0Z" fill="white"/>
  </g>
  <defs>
    <clipPath id="clip0_131_150">
      <rect width="27.4" height="27.4" fill="white" transform="translate(0.0668945)"/>
    </clipPath>
  </defs>
</svg>