<svg xmlns="http://www.w3.org/2000/svg" width="28" height="28" viewBox="0 0 28 28" fill="none">
  <path d="M25.905 0H2.55609C1.43762 0 0.533203 0.883008 0.533203 1.97473V25.4199C0.533203 26.5116 1.43762 27.4 2.55609 27.4H25.905C27.0234 27.4 27.9332 26.5116 27.9332 25.4253V1.97473C27.9332 0.883008 27.0234 0 25.905 0ZM8.66223 23.3489H4.59504V10.2696H8.66223V23.3489ZM6.62863 8.48758C5.32285 8.48758 4.26859 7.43332 4.26859 6.13289C4.26859 4.83246 5.32285 3.7782 6.62863 3.7782C7.92906 3.7782 8.98332 4.83246 8.98332 6.13289C8.98332 7.42797 7.92906 8.48758 6.62863 8.48758ZM23.8821 23.3489H19.8202V16.9912C19.8202 15.4767 19.7935 13.5234 17.7064 13.5234C15.5925 13.5234 15.2714 15.177 15.2714 16.8842V23.3489H11.2149V10.2696H15.1109V12.0571H15.1644C15.7049 11.0296 17.0321 9.9432 19.0068 9.9432C23.1222 9.9432 23.8821 12.6511 23.8821 16.1724V23.3489Z" fill="white"/>
</svg>