<svg xmlns="http://www.w3.org/2000/svg" width="25" height="24" viewBox="0 0 25 24" fill="none">
  <path d="M12.7042 1.5C10.5169 1.50258 8.42001 2.3726 6.87339 3.91922C5.32677 5.46584 4.45675 7.56276 4.45417 9.75C4.45155 11.5374 5.03541 13.2763 6.11617 14.7C6.11617 14.7 6.34117 14.9963 6.37792 15.039L12.7042 22.5L19.0334 15.0353C19.0664 14.9955 19.2922 14.7 19.2922 14.7L19.2929 14.6978C20.3731 13.2747 20.9567 11.5366 20.9542 9.75C20.9516 7.56276 20.0816 5.46584 18.535 3.91922C16.9883 2.3726 14.8914 1.50258 12.7042 1.5ZM12.7042 12.75C12.1108 12.75 11.5308 12.5741 11.0375 12.2444C10.5441 11.9148 10.1596 11.4462 9.93253 10.8981C9.70547 10.3499 9.64606 9.74667 9.76182 9.16473C9.87757 8.58279 10.1633 8.04824 10.5829 7.62868C11.0024 7.20912 11.537 6.9234 12.1189 6.80764C12.7008 6.69189 13.304 6.7513 13.8522 6.97836C14.4004 7.20542 14.8689 7.58994 15.1986 8.08329C15.5282 8.57664 15.7042 9.15666 15.7042 9.75C15.7032 10.5453 15.3868 11.3078 14.8244 11.8702C14.262 12.4326 13.4995 12.749 12.7042 12.75Z" fill="#0E294F"/>
</svg>