<svg xmlns="http://www.w3.org/2000/svg" width="35" height="35" viewBox="0 0 35 35" fill="none">
  <path fill-rule="evenodd" clip-rule="evenodd" d="M5.46875 26.25C5.46875 25.9599 5.58398 25.6817 5.7891 25.4766C5.99422 25.2715 6.27242 25.1562 6.5625 25.1562H28.4375C28.7276 25.1562 29.0058 25.2715 29.2109 25.4766C29.416 25.6817 29.5312 25.9599 29.5312 26.25C29.5312 26.5401 29.416 26.8183 29.2109 27.0234C29.0058 27.2285 28.7276 27.3438 28.4375 27.3438H6.5625C6.27242 27.3438 5.99422 27.2285 5.7891 27.0234C5.58398 26.8183 5.46875 26.5401 5.46875 26.25ZM5.46875 17.5C5.46875 17.2099 5.58398 16.9317 5.7891 16.7266C5.99422 16.5215 6.27242 16.4062 6.5625 16.4062H28.4375C28.7276 16.4062 29.0058 16.5215 29.2109 16.7266C29.416 16.9317 29.5312 17.2099 29.5312 17.5C29.5312 17.7901 29.416 18.0683 29.2109 18.2734C29.0058 18.4785 28.7276 18.5938 28.4375 18.5938H6.5625C6.27242 18.5938 5.99422 18.4785 5.7891 18.2734C5.58398 18.0683 5.46875 17.7901 5.46875 17.5ZM5.46875 8.75C5.46875 8.45992 5.58398 8.18172 5.7891 7.9766C5.99422 7.77148 6.27242 7.65625 6.5625 7.65625H28.4375C28.7276 7.65625 29.0058 7.77148 29.2109 7.9766C29.416 8.18172 29.5312 8.45992 29.5312 8.75C29.5312 9.04008 29.416 9.31828 29.2109 9.5234C29.0058 9.72852 28.7276 9.84375 28.4375 9.84375H6.5625C6.27242 9.84375 5.99422 9.72852 5.7891 9.5234C5.58398 9.31828 5.46875 9.04008 5.46875 8.75Z" fill="white"/>
</svg>