<svg xmlns="http://www.w3.org/2000/svg" width="25" height="24" viewBox="0 0 25 24"
                                    fill="none">
                                    <path
                                        d="M20.7042 10.999H22.7042C22.7042 5.869 18.8312 2 13.6942 2V4C17.7562 4 20.7042 6.943 20.7042 10.999Z"
                                        fill="#0E294F" />
                                    <path
                                        d="M13.7044 7.99999C15.8074 7.99999 16.7044 8.89699 16.7044 11H18.7044C18.7044 7.77499 16.9294 5.99999 13.7044 5.99999V7.99999ZM17.1264 13.443C16.9343 13.2683 16.6818 13.1752 16.4222 13.1832C16.1627 13.1912 15.9164 13.2998 15.7354 13.486L13.3424 15.947C12.7664 15.837 11.6084 15.476 10.4164 14.287C9.22444 13.094 8.86344 11.933 8.75644 11.361L11.2154 8.96699C11.4019 8.78612 11.5106 8.53982 11.5186 8.2802C11.5266 8.02059 11.4333 7.76804 11.2584 7.57599L7.56344 3.51299C7.38849 3.32035 7.14532 3.2035 6.8856 3.18725C6.62587 3.17101 6.37004 3.25665 6.17244 3.42599L4.00244 5.28699C3.82956 5.46051 3.72636 5.69145 3.71244 5.93599C3.69744 6.18599 3.41144 12.108 8.00344 16.702C12.0094 20.707 17.0274 21 18.4094 21C18.6114 21 18.7354 20.994 18.7684 20.992C19.013 20.9783 19.2438 20.8747 19.4164 20.701L21.2764 18.53C21.4459 18.3325 21.5317 18.0768 21.5157 17.817C21.4996 17.5573 21.3829 17.3141 21.1904 17.139L17.1264 13.443Z"
                                        fill="#0E294F" />
                                </svg>