<svg xmlns="http://www.w3.org/2000/svg" width="43" height="43" viewBox="0 0 43 43" fill="none">
  <path d="M30.6633 15.5518C31.0889 14.9439 30.9411 14.106 30.3331 13.6804C29.7251 13.2548 28.8872 13.4027 28.4617 14.0107L20.0196 26.0708L14.4318 19.9242C13.9326 19.3751 13.0827 19.3346 12.5336 19.8338C11.9845 20.333 11.944 21.1829 12.4432 21.732L19.162 29.1227C19.4367 29.4249 19.834 29.5857 20.2416 29.5598C20.6492 29.5339 21.0229 29.3239 21.2571 28.9893L30.6633 15.5518Z" fill="#379FFF"/>
  <path fill-rule="evenodd" clip-rule="evenodd" d="M40.3125 21.5C40.3125 31.8899 31.8899 40.3125 21.5 40.3125C11.1101 40.3125 2.6875 31.8899 2.6875 21.5C2.6875 11.1101 11.1101 2.6875 21.5 2.6875C31.8899 2.6875 40.3125 11.1101 40.3125 21.5ZM37.625 21.5C37.625 30.4056 30.4056 37.625 21.5 37.625C12.5944 37.625 5.375 30.4056 5.375 21.5C5.375 12.5944 12.5944 5.375 21.5 5.375C30.4056 5.375 37.625 12.5944 37.625 21.5Z" fill="#379FFF"/>
</svg>