<svg xmlns="http://www.w3.org/2000/svg" width="47" height="46" viewBox="0 0 47 46" fill="none">
  <path d="M29.3327 3.83201C29.5981 3.08377 30.4198 2.69233 31.168 2.95771C35.8423 4.61555 39.3125 8.70629 39.3125 13.6563C39.3125 18.6063 35.8423 22.697 31.168 24.3548C30.4198 24.6202 29.5981 24.2288 29.3327 23.4805C29.0673 22.7323 29.4587 21.9106 30.207 21.6452C33.9617 20.3135 36.4375 17.1637 36.4375 13.6563C36.4375 10.1489 33.9617 6.99904 30.207 5.66734C29.4587 5.40196 29.0673 4.58025 29.3327 3.83201Z" fill="#379FFF"/>
  <path fill-rule="evenodd" clip-rule="evenodd" d="M18.6648 24.8296C24.7274 24.8296 29.642 19.9149 29.642 13.8523C29.642 7.78972 24.7274 2.87503 18.6648 2.87503C12.6022 2.87503 7.6875 7.78972 7.6875 13.8523C7.6875 19.9149 12.6022 24.8296 18.6648 24.8296ZM18.6648 21.9546C23.1395 21.9546 26.767 18.3271 26.767 13.8523C26.767 9.37754 23.1395 5.75003 18.6648 5.75003C14.19 5.75003 10.5625 9.37754 10.5625 13.8523C10.5625 18.3271 14.19 21.9546 18.6648 21.9546Z" fill="#379FFF"/>
  <path d="M6.25 37.375C6.25 35.7872 7.53718 34.5 9.125 34.5H27.8125C29.4003 34.5 30.6875 35.7872 30.6875 37.375V41.6875C30.6875 42.4814 31.3311 43.125 32.125 43.125C32.9189 43.125 33.5625 42.4814 33.5625 41.6875V37.375C33.5625 34.1994 30.9881 31.625 27.8125 31.625H9.125C5.94936 31.625 3.375 34.1994 3.375 37.375V41.6875C3.375 42.4814 4.01859 43.125 4.8125 43.125C5.60641 43.125 6.25 42.4814 6.25 41.6875V37.375Z" fill="#379FFF"/>
  <path d="M39.3125 25.875C40.1064 25.875 40.75 26.5186 40.75 27.3125V30.1875H43.625C44.4189 30.1875 45.0625 30.8311 45.0625 31.625C45.0625 32.4189 44.4189 33.0625 43.625 33.0625H40.75V35.9375C40.75 36.7314 40.1064 37.375 39.3125 37.375C38.5186 37.375 37.875 36.7314 37.875 35.9375V33.0625H35C34.2061 33.0625 33.5625 32.4189 33.5625 31.625C33.5625 30.8311 34.2061 30.1875 35 30.1875H37.875V27.3125C37.875 26.5186 38.5186 25.875 39.3125 25.875Z" fill="#379FFF"/>
</svg>