<svg xmlns="http://www.w3.org/2000/svg" width="47" height="46" viewBox="0 0 47 46" fill="none">
  <path fill-rule="evenodd" clip-rule="evenodd" d="M21.5884 4.37253C23.7626 2.51436 26.4553 2.54492 28.5267 3.59867C30.6052 2.54233 33.2656 2.5435 35.4353 4.34731C38.3066 6.73444 38.6432 10.8293 36.4437 13.6603C35.7574 14.5437 34.5297 15.7484 33.4891 16.7309C32.3934 17.7653 31.305 18.7385 30.7702 19.2122L30.7619 19.2197C30.7221 19.2552 30.5909 19.3722 30.4529 19.4762C30.2689 19.6148 29.9267 19.8467 29.4414 19.9916C28.8452 20.1695 28.2084 20.1695 27.6123 19.9916C27.1269 19.8467 26.7847 19.6148 26.6007 19.4762C26.4627 19.3723 26.3316 19.2552 26.2918 19.2197L26.2834 19.2122C25.7486 18.7385 24.6602 17.7653 23.5646 16.7309C22.5239 15.7484 21.2962 14.5437 20.6099 13.6603C18.3851 10.7966 18.8132 6.74436 21.5884 4.37253ZM29.5409 6.32404C29.0485 6.62956 28.8024 6.78232 28.6844 6.80895L28.6714 6.81189C28.5987 6.82833 28.5623 6.83655 28.526 6.83654C28.4896 6.83653 28.4532 6.82829 28.3805 6.81181L28.3675 6.80886C28.2496 6.78217 28.0039 6.62953 27.5126 6.32426C26.2682 5.55112 24.7034 5.49223 23.4563 6.55808C21.8359 7.943 21.6077 10.2585 22.8803 11.8965C23.9383 13.2583 27.1403 16.1305 28.1898 17.0602C28.3072 17.1642 28.3659 17.2162 28.4344 17.2366C28.4941 17.2544 28.5595 17.2544 28.6193 17.2366C28.6878 17.2162 28.7465 17.1642 28.8639 17.0602C29.9133 16.1305 33.1153 13.2583 34.1734 11.8965C35.4459 10.2585 35.2456 7.92843 33.5973 6.55808C32.3299 5.50436 30.7783 5.5562 29.5409 6.32404Z" fill="#379FFF"/>
  <path d="M3.375 20.125C3.375 19.3311 4.01859 18.6875 4.8125 18.6875H11.913C12.9028 18.6875 13.8759 18.943 14.7381 19.4294L23.0556 24.1213C24.0158 24.663 24.6933 25.5115 25.0351 26.4742L37.3046 24.8631C39.8043 24.5348 42.2182 25.9054 43.2172 28.2202C44.4837 31.1548 43.0609 34.5544 40.0817 35.7121L23.3953 42.1961C21.6123 42.889 19.6014 42.6498 18.0307 41.5579L11.073 36.7213C10.5913 36.3865 10.0187 36.207 9.43201 36.207H4.8125C4.01859 36.207 3.375 35.5634 3.375 34.7695C3.375 33.9756 4.01859 33.332 4.8125 33.332H9.43201C10.6053 33.332 11.7506 33.691 12.714 34.3607L19.6717 39.1972C20.4571 39.7432 21.4625 39.8628 22.354 39.5164L39.0404 33.0323C40.5009 32.4647 41.1984 30.7981 40.5775 29.3594C40.0878 28.2246 38.9044 27.5527 37.6789 27.7136L25.051 29.3718C24.9623 29.6289 24.8483 29.8815 24.7081 30.1263C23.6256 32.0163 21.321 32.8268 19.2938 32.0304L14.3494 30.0879C13.6104 29.7976 13.2467 28.9633 13.537 28.2244C13.8273 27.4854 14.6617 27.1217 15.4006 27.412L20.345 29.3545C21.0445 29.6293 21.8398 29.3496 22.2133 28.6975C22.631 27.9682 22.3751 27.0383 21.6431 26.6254L13.3255 21.9334C12.8945 21.6903 12.4079 21.5625 11.913 21.5625H4.8125C4.01859 21.5625 3.375 20.9189 3.375 20.125Z" fill="#379FFF"/>
</svg>