<svg xmlns="http://www.w3.org/2000/svg" width="47" height="46" viewBox="0 0 47 46" fill="none">
  <path d="M17.3346 13.9281C16.1195 15.324 15.4843 17.0547 15.0558 18.3969C14.766 19.3044 13.956 19.847 13.1251 19.9185C11.8025 20.0322 10.0375 20.6767 8.62353 21.8754C7.24208 23.0464 6.25002 24.6923 6.25 26.8633C6.24997 29.5092 7.21725 30.9861 8.3116 31.8387C9.4691 32.7406 10.9267 33.062 11.9896 33.0625H11.9924L11.9943 33.0625C12.7882 33.0593 13.4343 33.7004 13.4375 34.4943C13.4407 35.2882 12.7996 35.9343 12.0057 35.9375L11.9982 35.9375L11.9924 35.9375C10.4574 35.9375 8.32651 35.495 6.54459 34.1066C4.69852 32.6683 3.37496 30.3267 3.375 26.8633C3.37503 23.7003 4.86002 21.2967 6.76445 19.6823C8.49989 18.2112 10.6287 17.3501 12.4541 17.1014C12.9188 15.7064 13.695 13.7304 15.1661 12.0405C16.8443 10.1125 19.3674 8.625 23.1012 8.625C23.1688 8.625 23.2354 8.62967 23.3006 8.63872C23.3658 8.62967 23.4323 8.625 23.5 8.625C27.2276 8.625 29.8233 10.1062 31.5866 12.0076C33.1533 13.6969 34.0262 15.6749 34.5331 17.0996C36.3613 17.3461 38.4961 18.2077 40.2356 19.6823C42.14 21.2967 43.625 23.7003 43.625 26.8633C43.625 30.3267 42.3015 32.6683 40.4554 34.1066C38.6735 35.495 36.5426 35.9375 35.0076 35.9375L35.0018 35.9375L34.9943 35.9375C34.2004 35.9343 33.5593 35.2882 33.5625 34.4943C33.5657 33.7004 34.2118 33.0593 35.0057 33.0625L35.0076 33.0625H35.0104C36.0733 33.062 37.5309 32.7406 38.6884 31.8387C39.7827 30.9861 40.75 29.5092 40.75 26.8633C40.75 24.6923 39.7579 23.0464 38.3765 21.8754C36.9625 20.6767 35.1975 20.0322 33.8749 19.9185C33.0405 19.8467 32.2436 19.3041 31.9467 18.4175C31.5107 17.1161 30.7852 15.3714 29.4787 13.9626C28.2142 12.5991 26.3635 11.5 23.5 11.5C23.4323 11.5 23.3658 11.4953 23.3006 11.4863C23.2354 11.4953 23.1688 11.5 23.1012 11.5C20.2449 11.5 18.4977 12.592 17.3346 13.9281Z" fill="#379FFF"/>
  <path d="M28.8943 32.5716C29.4171 31.9741 29.3566 31.066 28.7591 30.5432C28.1616 30.0204 27.2535 30.0809 26.7307 30.6784L22.6487 35.3435L20.1372 33.1333C19.5412 32.6089 18.6328 32.6668 18.1083 33.2628C17.5839 33.8588 17.6418 34.7672 18.2378 35.2916L21.8316 38.4542C22.1183 38.7065 22.4937 38.8343 22.8748 38.8094C23.256 38.7846 23.6116 38.609 23.8631 38.3216L28.8943 32.5716Z" fill="#379FFF"/>
</svg>