<svg xmlns="http://www.w3.org/2000/svg" width="29" height="30" viewBox="0 0 29 30" fill="none">
  <path d="M24.7739 4.36508C23.4378 2.97597 21.8464 1.87459 20.0925 1.12516C18.3386 0.37574 16.4573 -0.00672015 14.5583 8.93542e-05C6.60151 8.93542e-05 0.116583 6.67507 0.116583 14.865C0.116583 17.49 0.786935 20.04 2.0402 22.29L0 30L7.65075 27.93C9.76382 29.115 12.1392 29.745 14.5583 29.745C22.5151 29.745 29 23.07 29 14.88C29 10.9051 27.499 7.17007 24.7739 4.36508ZM14.5583 27.225C12.4015 27.225 10.2884 26.625 8.43769 25.5L8.0005 25.23L3.45377 26.46L4.66332 21.9L4.37186 21.435C3.1736 19.4655 2.53734 17.1889 2.53568 14.865C2.53568 8.05507 7.92764 2.50508 14.5437 2.50508C17.7497 2.50508 20.7663 3.79508 23.0251 6.13507C24.1436 7.28101 25.0299 8.64406 25.6328 10.1452C26.2357 11.6463 26.5431 13.2557 26.5372 14.88C26.5663 21.69 21.1744 27.225 14.5583 27.225ZM21.1452 17.985C20.7809 17.805 19.003 16.905 18.6824 16.77C18.3472 16.65 18.1141 16.59 17.8663 16.95C17.6186 17.325 16.9337 18.165 16.7296 18.405C16.5256 18.66 16.307 18.69 15.9427 18.495C15.5784 18.315 14.4126 17.91 13.0427 16.65C11.9643 15.66 11.2502 14.445 11.0317 14.07C10.8276 13.695 11.0025 13.5 11.192 13.305C11.3523 13.14 11.5563 12.8701 11.7312 12.6601C11.906 12.4501 11.9789 12.2851 12.0955 12.0451C12.2121 11.7901 12.1538 11.5801 12.0663 11.4001C11.9789 11.2201 11.2502 9.39006 10.9588 8.64006C10.6673 7.92007 10.3613 8.01007 10.1427 7.99507H9.44322C9.19548 7.99507 8.81658 8.08507 8.48141 8.46006C8.1608 8.83506 7.22814 9.73506 7.22814 11.5651C7.22814 13.3951 8.52513 15.165 8.7 15.405C8.87487 15.66 11.2503 19.41 14.8643 21.015C15.7241 21.405 16.3945 21.63 16.9191 21.795C17.7789 22.08 18.5658 22.035 19.1925 21.945C19.892 21.84 21.3347 21.045 21.6261 20.175C21.9322 19.305 21.9322 18.57 21.8302 18.405C21.7281 18.24 21.5095 18.165 21.1452 17.985Z" fill="white"/>
</svg>