<svg xmlns="http://www.w3.org/2000/svg" width="28" height="20" viewBox="0 0 28 20" fill="none">
  <path d="M27.7272 4.15401C27.7272 4.15401 27.4596 2.26491 26.6354 1.43542C25.5919 0.343701 24.4253 0.338349 23.8901 0.274131C20.0584 -0.00415054 14.3054 -0.00415039 14.3054 -0.00415039H14.2947C14.2947 -0.00415039 8.54182 -0.00415054 4.7101 0.274131C4.17494 0.338349 3.0083 0.343701 1.96475 1.43542C1.14061 2.26491 0.878379 4.15401 0.878379 4.15401C0.878379 4.15401 0.600098 6.37491 0.600098 8.59046V10.6669C0.600098 12.8824 0.873027 15.1033 0.873027 15.1033C0.873027 15.1033 1.14061 16.9924 1.95939 17.8219C3.00295 18.9136 4.37295 18.8762 4.98303 18.9939C7.17717 19.2026 14.3001 19.2668 14.3001 19.2668C14.3001 19.2668 20.0584 19.2561 23.8901 18.9832C24.4253 18.919 25.5919 18.9136 26.6354 17.8219C27.4596 16.9924 27.7272 15.1033 27.7272 15.1033C27.7272 15.1033 28.0001 12.8878 28.0001 10.6669V8.59046C28.0001 6.37491 27.7272 4.15401 27.7272 4.15401ZM11.4691 13.1875V5.48655L18.8703 9.35038L11.4691 13.1875Z" fill="white"/>
</svg>